<svg width="588" height="588" viewBox="0 0 588 588" fill="none" xmlns="http://www.w3.org/2000/svg">
<path d="M588 294C588 255.391 580.395 217.161 565.621 181.491C550.846 145.821 529.19 113.411 501.889 86.1106C474.589 58.8102 442.179 37.1543 406.509 22.3794C370.839 7.60453 332.609 -1.68764e-06 294 0V294H588Z" fill="#7DD1C1" fill-opacity="0.08"/>
<path d="M497.631 294C497.631 239.994 476.178 188.199 437.989 150.011C399.801 111.823 348.007 90.3689 294 90.3689C239.994 90.3689 188.2 111.823 150.011 150.011C111.823 188.199 90.3691 239.994 90.3691 294L294 294H497.631Z" fill="#7DD1C1" fill-opacity="0.12"/>
<path d="M-2.57023e-05 294C-2.2327e-05 332.609 7.60453 370.839 22.3794 406.509C37.1543 442.179 58.8102 474.589 86.1106 501.89C113.411 529.19 145.821 550.846 181.491 565.621C217.161 580.396 255.391 588 294 588L294 294L-2.57023e-05 294Z" fill="#7DD1C1" fill-opacity="0.08"/>
<path d="M90.3685 294C90.3685 320.741 95.6356 347.221 105.869 371.926C116.102 396.632 131.102 419.08 150.011 437.989C168.92 456.898 191.368 471.897 216.073 482.131C240.779 492.364 267.258 497.631 294 497.631L294 294L90.3685 294Z" fill="#7DD1C1" fill-opacity="0.12"/>
<path fill-rule="evenodd" clip-rule="evenodd" d="M132.787 196.805V358.061C132.781 369.002 139.073 373.087 149.81 373.087H421.323C442.37 373.087 437.38 354.76 437.38 332.955L437.274 193.118C436.179 183.133 429.201 181.304 419.399 181.304H149.81C138.155 181.304 132.787 184.819 132.787 196.805Z" fill="#3F4760"/>
<path fill-rule="evenodd" clip-rule="evenodd" d="M92.5332 396.073C95.6643 401.024 91.5981 407.008 100.666 414.203C106.91 419.155 115.137 417.843 123.713 417.843L444.956 417.878C454.16 417.866 459.771 415.361 463.535 409.668C466.098 405.815 465.867 404.111 466.613 398.851C467.797 390.475 470.827 397.379 469.786 389.632L317.779 389.65C311.848 401.891 313.198 399.119 283.361 399.119C260.455 399.119 251.133 402.413 250.358 389.412C213.147 390.475 168.099 389.489 129.449 389.489C122.731 389.489 93.7644 387.916 90 390.89C90.3492 393.829 92.0065 395.402 92.0065 395.39C92.0893 395.23 92.3734 395.83 92.5332 396.073V396.073Z" fill="#D9D9D9"/>
<path fill-rule="evenodd" clip-rule="evenodd" d="M127.721 196.805C127.721 184.819 133.089 181.304 144.743 181.304H414.333C424.134 181.304 431.112 183.133 432.207 193.118L432.314 332.955C432.314 354.76 437.304 373.086 416.256 373.086H144.743C134.007 373.086 127.715 369.002 127.721 358.061V196.805V196.805ZM130.852 176.377C119.979 178.805 119.227 185.632 119.269 197.766L119.251 361.967C119.452 383.659 140.789 378.328 168.643 378.328H364.627C378.299 378.328 419.66 380.145 430.213 377.865C441.026 375.526 440.731 365.072 440.707 356.137C440.583 302.31 441.494 244.998 440.742 191.937C440.594 181.328 435.421 176.181 424.886 176.038C350.362 175.071 270.778 176.062 195.408 176.062C182.843 176.062 139.854 174.364 130.852 176.377V176.377Z" fill="#2F354D"/>
<path fill-rule="evenodd" clip-rule="evenodd" d="M130.851 176.377C139.854 174.364 182.842 176.062 195.408 176.062C270.778 176.062 350.362 175.071 424.886 176.039C435.421 176.181 440.594 181.328 440.742 191.937C441.494 244.998 440.582 302.31 440.706 356.137C440.73 365.072 441.026 375.526 430.212 377.865C419.659 380.145 378.299 378.328 364.626 378.328H168.643C140.789 378.328 119.452 383.66 119.251 361.967L119.268 197.767C119.227 185.632 119.979 178.805 130.851 176.377V176.377ZM114.622 369.649C116.528 379.474 123.358 383.707 134.178 383.755L371.32 383.731C383.714 383.731 428.727 385.613 436.729 381.659C445.483 377.343 445.939 368.242 445.915 356.126C445.868 330.468 447.217 194.133 445.4 185.668C443.494 176.792 435.918 171.099 425.856 170.832C414.859 170.547 403.406 170.832 392.35 170.832H188.725C132.396 170.832 113.983 162.473 114.066 198.74C114.131 225.532 112.693 359.723 114.622 369.649V369.649Z" fill="#D9D9D9"/>
<path fill-rule="evenodd" clip-rule="evenodd" d="M268.847 289.315C268.271 288.274 265.928 285.561 264.747 285.354C256.228 285.368 247.487 285.533 238.992 285.365C228.982 285.165 230.807 276.739 230.807 268.503C230.807 261.781 230.071 221.639 231.351 218.701C233.975 212.675 243.117 214.364 252.611 214.364C280.717 214.364 277.605 211.148 277.605 240.258C277.605 248.298 277.179 257.495 277.666 265.393C279.341 265.945 279.867 266.035 281.257 266.483C281.791 262.756 281.688 228.699 281.417 221.408C281.321 218.825 280.934 217.343 279.686 215.423C278.153 213.065 276.738 213.006 275.397 211.355C274.11 211.351 272.24 210.589 265.722 210.596C259.183 210.603 237.417 210.076 233.929 211.307C226.931 213.778 226.945 220.36 226.952 225.193V267.09C226.952 273.512 225.807 281.348 229.797 285.437C234.448 290.208 239.348 289.064 247.27 289.064C251.857 289.064 265.462 288.46 268.847 289.315Z" fill="#BABECD"/>
<path fill-rule="evenodd" clip-rule="evenodd" d="M271.912 287.154L274.472 289.198C275.393 290.108 275.973 290.66 276.901 291.56C278.373 292.983 286.05 300.064 286.491 301.157C287.085 302.626 287.178 307.28 287.914 309.569C290.488 317.55 299.403 326.044 309.505 326.91C310.415 325.582 311.08 324.81 312.399 324.317C311.461 323.407 310.031 323.314 308.534 323.004C300.37 321.308 292.774 314.854 291.089 306.521C289.261 297.489 293.215 302.064 284.735 293.849C282.363 291.553 271.109 281.724 270.661 278.77C270.12 275.198 274.341 269.168 280.823 275.515C282.637 277.287 284.095 278.704 285.915 280.462C289.108 283.537 292.11 287.026 296.48 289.543C299.001 290.994 310.557 295.435 309.121 289.002C306.333 288.181 303.631 288.598 300.324 287.202C294.449 284.727 288.259 277.349 283.056 272.402C274.657 264.411 264.441 272.337 267.183 280.71C268.25 283.961 270.643 284.789 271.912 287.154Z" fill="#BABECD"/>
<path fill-rule="evenodd" clip-rule="evenodd" d="M253.059 299.585C250.816 306.38 255.609 310.472 262.308 310.5C269.598 310.527 276.934 310.39 284.216 310.51C283.139 305.349 284.927 306.78 268.634 306.78C266.497 306.78 260.822 307.042 259.122 306.439C256.228 305.408 255.815 302.274 257.348 299.927C260.836 298.599 274.484 299.992 279.711 299.482C278.978 298.706 278.022 297.72 277.179 296.941C275.682 295.548 275.735 295.793 273.033 295.81L251.634 295.845C245.702 295.879 246.918 295.8 244.241 292.714L240.788 292.766C241.041 299.654 248.981 299.616 253.059 299.585Z" fill="#BABECD"/>
<path fill-rule="evenodd" clip-rule="evenodd" d="M309.164 332.994L317.343 341.768C318.793 343.323 320.493 343.923 321.218 343.592C323.11 342.73 322.36 341.048 320.486 339.276L313.904 333.039L342.483 305.246L349.441 311.993C350.825 313.334 352.222 313.799 353.193 312.754C353.691 312.22 353.541 311.041 352.482 310.021L342.924 300.812L309.164 332.994Z" fill="#BABECD"/>
<path fill-rule="evenodd" clip-rule="evenodd" d="M336.946 299.716C335.452 298.53 334.816 297.234 333.226 295.796L318.42 280.042C316.99 278.501 316.755 277.884 314.995 276.287L307.905 268.551C302.539 261.887 296.629 261.705 285.115 261.853L285.233 265.528C301.956 265.818 300.146 265.407 310.636 277.229L333.945 302.44C335.925 301.536 335.954 301.533 336.946 299.716Z" fill="#BABECD"/>
<path fill-rule="evenodd" clip-rule="evenodd" d="M249.482 227.237C235.419 230.133 234.725 238.938 240.055 236.204C241.595 235.418 247.356 228.506 258.738 231.033C268.086 233.105 268.943 239.434 271.248 235.701C273.402 232.208 259.424 225.193 249.482 227.237Z" fill="#BABECD"/>
<path fill-rule="evenodd" clip-rule="evenodd" d="M252.156 233.925C248.447 234.435 238.54 238.634 242.804 241.303C245.321 242.882 252.124 232.298 262.798 240.782C265.473 242.909 267.521 240.599 265.729 238.428C263.254 235.421 257.472 233.194 252.156 233.925Z" fill="#BABECD"/>
<path fill-rule="evenodd" clip-rule="evenodd" d="M252.159 241.024C250.079 241.527 244.368 244.199 247.935 246.246C250.321 247.612 251.914 242.785 256.501 244.974C258.009 245.695 258.151 247.119 260.203 246.291C263.709 244.881 258.304 239.541 252.159 241.024Z" fill="#BABECD"/>
</svg>
