<svg width="22" height="22" viewBox="0 0 22 22" fill="none" xmlns="http://www.w3.org/2000/svg">
<path d="M13.3375 20.5516C13.035 20.5516 12.7509 20.3499 12.6684 20.0383C12.5675 19.6716 12.7875 19.2958 13.1634 19.1949C16.885 18.2141 19.4792 14.8408 19.4792 10.9908C19.4792 6.31575 15.675 2.51159 11 2.51159C7.03087 2.51159 4.42754 4.83075 3.20837 6.23325H5.90337C6.27921 6.23325 6.59087 6.54492 6.59087 6.92075C6.59087 7.29659 6.28837 7.61742 5.90337 7.61742H1.84254C1.79671 7.61742 1.71421 7.60825 1.65004 7.58992C1.56754 7.56242 1.49421 7.52575 1.43004 7.47992C1.34754 7.42492 1.28337 7.35158 1.23754 7.26908C1.19171 7.18658 1.15504 7.08575 1.14587 6.98492C1.14587 6.95742 1.14587 6.93908 1.14587 6.91159V2.74992C1.14587 2.37409 1.45754 2.06242 1.83337 2.06242C2.20921 2.06242 2.52087 2.37409 2.52087 2.74992V4.94075C4.01504 3.33659 6.82921 1.14575 11 1.14575C16.4359 1.14575 20.8542 5.56409 20.8542 10.9999C20.8542 15.4733 17.8384 19.3966 13.5117 20.5333C13.4567 20.5424 13.3925 20.5516 13.3375 20.5516Z" fill="#637381"/>
<path d="M10.3492 20.8358C10.3309 20.8358 10.3125 20.8267 10.3034 20.8267C9.31337 20.7625 8.34171 20.5425 7.42504 20.185C7.15921 20.0842 6.97587 19.8183 6.98504 19.5342C6.98504 19.4517 7.00337 19.3692 7.03087 19.2958C7.16837 18.9475 7.58087 18.7733 7.92004 18.9017C8.71754 19.2133 9.55171 19.3967 10.395 19.4608C10.7525 19.4792 11.0367 19.7908 11.0367 20.1575L11.0275 20.1942C11.0092 20.5517 10.7067 20.8358 10.3492 20.8358ZM5.29837 18.865C5.14254 18.865 4.99587 18.81 4.86754 18.7183C4.09754 18.095 3.41921 17.3708 2.86921 16.5642C2.78671 16.445 2.74087 16.3167 2.74087 16.1792C2.74087 15.95 2.85087 15.7392 3.04337 15.6108C3.34587 15.4 3.78587 15.4825 3.99671 15.7758C3.99671 15.785 3.99671 15.785 3.99671 15.785C4.00587 15.7942 4.01504 15.8125 4.02421 15.8217C4.50087 16.5092 5.07837 17.1233 5.72921 17.6367C5.88504 17.765 5.98587 17.9575 5.98587 18.1683C5.98587 18.3242 5.94004 18.48 5.83921 18.6083C5.70171 18.7733 5.50921 18.865 5.29837 18.865ZM2.23671 14.3917C1.93421 14.3917 1.66837 14.1992 1.58587 13.915C1.29254 12.9708 1.14587 11.99 1.14587 11V10.9908C1.15504 10.615 1.45754 10.3125 1.83337 10.3125C2.20921 10.3125 2.52087 10.6242 2.52087 11C2.52087 11.8617 2.64921 12.705 2.89671 13.5025C2.91504 13.5758 2.92421 13.64 2.92421 13.7133C2.92421 14.0067 2.73171 14.2725 2.43837 14.3642C2.37421 14.3825 2.31004 14.3917 2.23671 14.3917Z" fill="#637381"/>
</svg>
