<svg width="22" height="22" viewBox="0 0 22 22" fill="none" xmlns="http://www.w3.org/2000/svg">
<path fill-rule="evenodd" clip-rule="evenodd" d="M15.8752 16.1348C13.9452 17.0174 12.4684 15.9558 13.4001 15.3289C13.7248 15.1105 14.4425 15.2136 14.888 15.2136C15.4403 14.5957 15.066 14.2795 16.0486 14.2048C16.5518 14.4719 16.648 14.6469 16.7989 15.2855C17.1927 15.0334 17.9934 14.6733 18.6733 15.0025C18.9887 15.1552 19.0676 15.4706 18.9239 15.7609C18.6114 16.3914 18.1587 15.7601 17.7654 16.3256C17.7615 16.3313 17.6111 16.7178 17.5962 16.7548C17.4462 17.1327 17.397 17.298 17.0066 17.367C16.2368 17.503 16.1058 16.7966 15.8752 16.1348ZM18.3614 11.198C19.1566 11.2971 19.1731 12.0871 18.611 12.2987L11.8538 12.3478C12.1886 13.1122 12.3735 13.9531 12.3735 14.8357C12.3735 16.3086 11.8576 17.6654 10.992 18.7457L20.7067 18.7453L20.6983 3.25853L19.6347 3.25244C19.6 4.44523 18.8645 4.29583 17.776 4.29055L11.9754 4.29217C10.6342 4.30232 10.6308 4.29583 10.3193 3.41118L9.29346 3.25731L9.30193 9.43725C10.0938 9.92322 10.7716 10.5675 11.287 11.3247C11.3523 11.2865 11.4286 11.254 11.5163 11.2285L18.3614 11.198ZM11.8542 9.73971C10.7381 9.73971 10.6207 8.57047 11.8542 8.57047H18.1456C19.3698 8.57047 19.2638 9.73971 18.1456 9.73971H11.8542ZM11.3726 6.03833C11.6397 5.90029 17.5941 5.89055 18.2728 5.94982C19.0828 6.02127 19.2545 6.7488 18.678 7.02934L11.7257 7.11338C10.9399 7.04639 10.6809 6.3956 11.3726 6.03833Z" fill="#919EAB" fill-opacity="0.8"/>
<path fill-rule="evenodd" clip-rule="evenodd" d="M9.29342 3.25733L10.3192 3.4112C10.6308 4.29585 10.6342 4.30234 11.9754 4.2922L17.7759 4.29057C18.8645 4.29585 19.5999 4.44525 19.6347 3.25246L20.6982 3.25855L20.7067 18.7453L10.992 18.7458C10.6346 19.1919 10.2175 19.591 9.75208 19.9316C10.7698 19.9885 12.3836 19.9191 14.9384 19.9191C23.1627 19.9191 21.9347 21.2219 21.9356 13.3741C21.936 10.7933 22.0466 5.74035 21.936 3.34909C21.8758 2.04708 21.0327 2.07591 19.7491 2.07591L19.5838 1.61796C19.5232 1.42471 19.5067 1.33742 19.4418 1.17502C18.6046 0.946859 11.3879 0.93874 10.552 1.16853L10.2506 2.07591C7.5508 2.07591 8.06202 2.56797 8.06456 6.53243V8.84372C8.50032 9.00002 8.91489 9.19977 9.3019 9.43727L9.29342 3.25733ZM11.6638 2.22816L18.3626 2.22166L18.3851 3.09291L11.6032 3.099L11.6638 2.22816Z" fill="#637381"/>
<path fill-rule="evenodd" clip-rule="evenodd" d="M15.8752 16.1349C16.1058 16.7967 16.2368 17.5031 17.0066 17.3671C17.397 17.2981 17.4462 17.1328 17.5962 16.7548C17.611 16.7179 17.7615 16.3314 17.7653 16.3257C18.1587 15.7602 18.6114 16.3915 18.9238 15.761C19.0675 15.4707 18.9887 15.1553 18.6733 15.0026C17.9934 14.6733 17.1927 15.0335 16.7989 15.2856C16.648 14.647 16.5517 14.472 16.0486 14.2048C15.066 14.2795 15.4403 14.5958 14.888 15.2137C14.4425 15.2137 13.7248 15.1106 13.4001 15.329C12.4684 15.9559 13.9452 17.0175 15.8752 16.1349Z" fill="white"/>
<path fill-rule="evenodd" clip-rule="evenodd" d="M11.8542 9.7398H18.1456C19.2638 9.7398 19.3698 8.57056 18.1456 8.57056H11.8542C10.6207 8.57056 10.7381 9.7398 11.8542 9.7398Z" fill="white"/>
<path fill-rule="evenodd" clip-rule="evenodd" d="M11.3726 6.03848C10.6808 6.39575 10.9398 7.04655 11.7257 7.11353L18.6779 7.0295C19.2544 6.74896 19.0828 6.02143 18.2727 5.94997C17.594 5.8907 11.6396 5.90044 11.3726 6.03848Z" fill="white"/>
<path fill-rule="evenodd" clip-rule="evenodd" d="M11.5163 11.2287C11.4286 11.2543 11.3523 11.2867 11.287 11.3249C11.5066 11.6469 11.6969 11.9887 11.8537 12.348L18.611 12.2989C19.1731 12.0874 19.1565 11.2973 18.3613 11.1982L11.5163 11.2287Z" fill="white"/>
<path fill-rule="evenodd" clip-rule="evenodd" d="M6 9C2.68634 9 0 11.5588 0 14.7152C0 15.9412 0.405726 17.0773 1.09648 18.0078C1.00573 18.1763 0.955066 18.3671 0.955066 18.5689C0.955066 19.2502 1.5348 19.8029 2.25022 19.8029C2.96564 19.8029 3.54581 19.2502 3.54581 18.5689C3.54581 17.8876 2.96564 17.3349 2.25022 17.3349C2.08238 17.3349 1.92203 17.3656 1.77489 17.4206C1.22819 16.6481 0.90925 15.7172 0.90925 14.7152C0.90925 12.0366 3.1881 9.86581 6 9.86581C8.81145 9.86581 11.0907 12.0366 11.0907 14.7152C11.0907 16.243 9.48943 19.1834 7.79736 19.1834C6.96564 19.1834 6.29119 18.5714 6.29119 17.8166C6.29119 17.7174 6.30308 17.6203 6.32511 17.527C7.51189 17.4585 8.47225 16.8066 8.66344 15.966H8.70529C8.85815 15.6054 8.94449 15.2015 8.96079 14.7719V12.8995C8.96079 11.6369 8.9837 11.5058 7.87225 11.2024L7.25771 11.0347C7.0141 10.9682 6.68414 11.0876 6.68414 11.3289C6.68414 11.5701 6.74934 11.8088 6.99251 11.8752L7.94582 12.2703V15.2633C7.87048 15.5247 7.737 15.7634 7.55991 15.966H7.56916C7.20925 16.3401 6.69207 16.575 6.11762 16.575C5.21101 16.575 4.44758 15.9912 4.21894 15.1969V12.2039L5.17225 11.8088C5.41586 11.7424 5.48106 11.5037 5.48106 11.2625V11.262C5.48106 11.0208 5.1511 10.9018 4.90749 10.9682L4.29295 11.1359C3.18106 11.4394 3.20396 11.5705 3.20396 12.8331L3.2044 14.7055C3.25683 16.0833 4.02643 17.2 5.42247 17.4644C5.4022 17.5791 5.39163 17.6968 5.39163 17.8166C5.39163 19.0224 6.46872 20 7.79736 20C10.1656 20 12 16.7751 12 14.7152C12 11.7765 9.31322 9 6 9Z" fill="#637381"/>
</svg>
