<svg width="22" height="22" viewBox="0 0 22 22" fill="none" xmlns="http://www.w3.org/2000/svg">
<path d="M16.5002 6.56332C16.4452 6.55415 16.3811 6.55415 16.3261 6.56332C15.0611 6.51748 14.0527 5.48165 14.0527 4.19831C14.0527 2.88748 15.1069 1.83331 16.4177 1.83331C17.7286 1.83331 18.7827 2.89665 18.7827 4.19831C18.7736 5.48165 17.7652 6.51748 16.5002 6.56332Z" fill="#919EAB" stroke="#919EAB" stroke-width="1.5" stroke-linecap="round" stroke-linejoin="round"/>
<path d="M15.5558 13.2368C16.8117 13.4476 18.1958 13.2276 19.1675 12.5768C20.46 11.7151 20.46 10.3035 19.1675 9.4418C18.1867 8.79096 16.7842 8.57096 15.5283 8.79096" fill="#919EAB"/>
<path d="M15.5558 13.2368C16.8117 13.4476 18.1958 13.2276 19.1675 12.5768C20.46 11.7151 20.46 10.3035 19.1675 9.4418C18.1867 8.79096 16.7842 8.57096 15.5283 8.79096" stroke="#919EAB" stroke-width="1.5" stroke-linecap="round" stroke-linejoin="round"/>
<path d="M5.47098 6.56332C5.52598 6.55415 5.59014 6.55415 5.64514 6.56332C6.91014 6.51748 7.91848 5.48165 7.91848 4.19831C7.91848 2.88748 6.86431 1.83331 5.55348 1.83331C4.24264 1.83331 3.18848 2.89665 3.18848 4.19831C3.19764 5.48165 4.20598 6.51748 5.47098 6.56332Z" fill="#919EAB" stroke="#919EAB" stroke-width="1.5" stroke-linecap="round" stroke-linejoin="round"/>
<path d="M6.416 13.2367C5.16017 13.4475 3.776 13.2275 2.80434 12.5767C1.51184 11.715 1.51184 10.3033 2.80434 9.44167C3.78517 8.79084 5.18767 8.57083 6.4435 8.79083" fill="#919EAB"/>
<path d="M6.416 13.2367C5.16017 13.4475 3.776 13.2275 2.80434 12.5767C1.51184 11.715 1.51184 10.3033 2.80434 9.44167C3.78517 8.79084 5.18767 8.57083 6.4435 8.79083" stroke="#919EAB" stroke-width="1.5" stroke-linecap="round" stroke-linejoin="round"/>
<path d="M10.9993 13.4115C10.9443 13.4023 10.8801 13.4023 10.8251 13.4115C9.56009 13.3656 8.55176 12.3298 8.55176 11.0465C8.55176 9.73563 9.60592 8.68146 10.9168 8.68146C12.2276 8.68146 13.2818 9.74479 13.2818 11.0465C13.2726 12.3298 12.2643 13.3748 10.9993 13.4115Z" fill="#919EAB" stroke="#919EAB" stroke-width="1.5" stroke-linecap="round" stroke-linejoin="round"/>
<path d="M8.33266 16.2986C7.04016 17.1603 7.04016 18.572 8.33266 19.4336C9.79932 20.4145 12.201 20.4145 13.6677 19.4336C14.9602 18.572 14.9602 17.1603 13.6677 16.2986C12.2102 15.327 9.79932 15.327 8.33266 16.2986Z" fill="#919EAB" stroke="#919EAB" stroke-width="1.5" stroke-linecap="round" stroke-linejoin="round"/>
</svg>
