<svg width="22" height="22" viewBox="0 0 22 22" fill="none" xmlns="http://www.w3.org/2000/svg">
<path d="M2.74967 4.58333V2.75H13.7497V4.58333H2.74967ZM6.87467 16.0417H9.62467V13.75H11.9163V11H9.62467V8.70833H6.87467V11H4.58301V13.75H6.87467V16.0417ZM3.66634 19.25C3.16217 19.25 2.73073 19.0706 2.37201 18.7119C2.01267 18.3526 1.83301 17.9208 1.83301 17.4167V7.33333C1.83301 6.82917 2.01267 6.39772 2.37201 6.039C2.73073 5.67967 3.16217 5.5 3.66634 5.5H12.833C13.3372 5.5 13.7689 5.67967 14.1283 6.039C14.487 6.39772 14.6663 6.82917 14.6663 7.33333V17.4167C14.6663 17.9208 14.487 18.3526 14.1283 18.7119C13.7689 19.0706 13.3372 19.25 12.833 19.25H3.66634ZM3.66634 17.4167H12.833V7.33333H3.66634V17.4167ZM17.4163 12.6042C16.8816 12.3444 16.4422 11.9127 16.0982 11.3089C15.7547 10.7058 15.583 9.99167 15.583 9.16667C15.583 8.12778 15.8467 7.25694 16.3741 6.55417C16.9009 5.85139 17.5538 5.5 18.333 5.5C19.1122 5.5 19.7655 5.85139 20.2928 6.55417C20.8196 7.25694 21.083 8.12778 21.083 9.16667C21.083 9.99167 20.9113 10.7058 20.5678 11.3089C20.2238 11.9127 19.7844 12.3444 19.2497 12.6042V18.3333C19.2497 18.5931 19.1617 18.8106 18.9857 18.986C18.8103 19.162 18.5927 19.25 18.333 19.25C18.0733 19.25 17.8557 19.162 17.6803 18.986C17.5043 18.8106 17.4163 18.5931 17.4163 18.3333V12.6042ZM18.333 11C18.5163 11 18.715 10.8356 18.9288 10.5068C19.1427 10.1787 19.2497 9.73194 19.2497 9.16667C19.2497 8.60139 19.1427 8.15436 18.9288 7.82558C18.715 7.49742 18.5163 7.33333 18.333 7.33333C18.1497 7.33333 17.9511 7.49742 17.7372 7.82558C17.5233 8.15436 17.4163 8.60139 17.4163 9.16667C17.4163 9.73194 17.5233 10.1787 17.7372 10.5068C17.9511 10.8356 18.1497 11 18.333 11Z" fill="#637381"/>
</svg>
