<svg width="22" height="22" viewBox="0 0 22 22" fill="none" xmlns="http://www.w3.org/2000/svg">
<path d="M15.4829 9.8916C16.6181 11.0801 17.3153 12.6905 17.3153 14.4638C17.3153 18.1202 14.3512 21.0843 10.6948 21.0843C7.03833 21.0843 4.07422 18.1202 4.07422 14.4638C4.07422 12.7283 4.742 11.1488 5.83463 9.96813" stroke="#637381" stroke-width="1.5" stroke-linecap="round" stroke-linejoin="round"/>
<path d="M11.411 4.18229H12.8233C12.8289 4.18229 12.8333 4.18677 12.8333 4.19229V5.89104C12.8333 5.89656 12.8289 5.90104 12.8233 5.90104H11.411C11.4055 5.90104 11.401 5.90552 11.401 5.91104V7.32333C11.401 7.32886 11.3966 7.33333 11.391 7.33333H9.69229C9.68677 7.33333 9.68229 7.32886 9.68229 7.32333V5.91104C9.68229 5.90552 9.67781 5.90104 9.67229 5.90104H8.26C8.25448 5.90104 8.25 5.89656 8.25 5.89104V4.19229C8.25 4.18677 8.25448 4.18229 8.26 4.18229H9.67229C9.67781 4.18229 9.68229 4.17781 9.68229 4.17229V2.76C9.68229 2.75448 9.68677 2.75 9.69229 2.75H11.391C11.3966 2.75 11.401 2.75448 11.401 2.76V4.17229C11.401 4.17781 11.4055 4.18229 11.411 4.18229Z" stroke="#637381"/>
<path d="M4.70715 10.0616L2.77298 3.61441C2.75955 3.56962 2.78004 3.52086 2.82082 3.49799C8.95745 0.0560762 12.4318 0.0565918 18.5684 3.49799C18.6092 3.52087 18.6297 3.56962 18.6163 3.61441L16.6825 10.0604C16.6664 10.1141 16.6081 10.1437 16.5547 10.1265C12.0024 8.66282 9.40177 8.72038 4.83374 10.1282C4.7806 10.1445 4.72313 10.1149 4.70715 10.0616Z" stroke="#637381" stroke-width="1.5"/>
</svg>
