<svg width="22" height="22" viewBox="0 0 22 22" fill="none" xmlns="http://www.w3.org/2000/svg">
<path d="M15.5834 19.9375H6.41671C2.37421 19.9375 1.14587 18.7092 1.14587 14.6667V7.33333C1.14587 3.29083 2.37421 2.0625 6.41671 2.0625H15.5834C19.6259 2.0625 20.8542 3.29083 20.8542 7.33333V14.6667C20.8542 18.7092 19.6259 19.9375 15.5834 19.9375ZM6.41671 3.4375C3.13504 3.4375 2.52087 4.06083 2.52087 7.33333V14.6667C2.52087 17.9392 3.13504 18.5625 6.41671 18.5625H15.5834C18.865 18.5625 19.4792 17.9392 19.4792 14.6667V7.33333C19.4792 4.06083 18.865 3.4375 15.5834 3.4375H6.41671Z" fill="#637381"/>
<path d="M17.4167 8.02075H12.8334C12.4575 8.02075 12.1459 7.70908 12.1459 7.33325C12.1459 6.95742 12.4575 6.64575 12.8334 6.64575H17.4167C17.7925 6.64575 18.1042 6.95742 18.1042 7.33325C18.1042 7.70908 17.7925 8.02075 17.4167 8.02075Z" fill="#637381"/>
<path d="M17.4167 11.6875H13.75C13.3742 11.6875 13.0625 11.3758 13.0625 11C13.0625 10.6242 13.3742 10.3125 13.75 10.3125H17.4167C17.7925 10.3125 18.1042 10.6242 18.1042 11C18.1042 11.3758 17.7925 11.6875 17.4167 11.6875Z" fill="#637381"/>
<path d="M17.4167 15.3542H15.5834C15.2075 15.3542 14.8959 15.0426 14.8959 14.6667C14.8959 14.2909 15.2075 13.9792 15.5834 13.9792H17.4167C17.7925 13.9792 18.1042 14.2909 18.1042 14.6667C18.1042 15.0426 17.7925 15.3542 17.4167 15.3542Z" fill="#637381"/>
<path d="M7.79112 11.0366C6.49862 11.0366 5.44446 9.98243 5.44446 8.68993C5.44446 7.39743 6.49862 6.34326 7.79112 6.34326C9.08362 6.34326 10.1378 7.39743 10.1378 8.68993C10.1378 9.98243 9.08362 11.0366 7.79112 11.0366ZM7.79112 7.71826C7.25946 7.71826 6.81946 8.15826 6.81946 8.68993C6.81946 9.22159 7.25946 9.6616 7.79112 9.6616C8.32279 9.6616 8.76279 9.22159 8.76279 8.68993C8.76279 8.15826 8.32279 7.71826 7.79112 7.71826Z" fill="#637381"/>
<path d="M11 15.6566C10.6517 15.6566 10.3492 15.3908 10.3125 15.0333C10.2117 14.0433 9.4142 13.2458 8.41504 13.1541C7.99337 13.1174 7.5717 13.1174 7.15004 13.1541C6.15087 13.2458 5.35337 14.0341 5.25254 15.0333C5.21587 15.4091 4.8767 15.6933 4.50087 15.6474C4.12504 15.6108 3.85004 15.2716 3.8867 14.8958C4.0517 13.2458 5.36254 11.9349 7.0217 11.7883C7.52587 11.7424 8.0392 11.7424 8.54337 11.7883C10.1934 11.9441 11.5134 13.2549 11.6784 14.8958C11.715 15.2716 11.44 15.6108 11.0642 15.6474C11.0459 15.6566 11.0184 15.6566 11 15.6566Z" fill="#637381"/>
</svg>
