<svg width="22" height="22" viewBox="0 0 22 22" fill="none" xmlns="http://www.w3.org/2000/svg">
<path d="M13.75 11.8708H7.33337C6.95754 11.8708 6.64587 11.5592 6.64587 11.1833C6.64587 10.8075 6.95754 10.4958 7.33337 10.4958H13.75C14.1259 10.4958 14.4375 10.8075 14.4375 11.1833C14.4375 11.5592 14.1259 11.8708 13.75 11.8708Z" fill="#637381"/>
<path d="M11.3484 15.5376H7.33337C6.95754 15.5376 6.64587 15.2259 6.64587 14.8501C6.64587 14.4743 6.95754 14.1626 7.33337 14.1626H11.3484C11.7242 14.1626 12.0359 14.4743 12.0359 14.8501C12.0359 15.2259 11.7242 15.5376 11.3484 15.5376Z" fill="#637381"/>
<path d="M12.8334 6.18742H9.16671C8.28671 6.18742 6.64587 6.18742 6.64587 3.66659C6.64587 1.14575 8.28671 1.14575 9.16671 1.14575H12.8334C13.7134 1.14575 15.3542 1.14575 15.3542 3.66659C15.3542 4.54659 15.3542 6.18742 12.8334 6.18742ZM9.16671 2.52075C8.25921 2.52075 8.02087 2.52075 8.02087 3.66659C8.02087 4.81242 8.25921 4.81242 9.16671 4.81242H12.8334C13.9792 4.81242 13.9792 4.57409 13.9792 3.66659C13.9792 2.52075 13.7409 2.52075 12.8334 2.52075H9.16671Z" fill="#637381"/>
<path d="M13.75 20.8546H8.25C3.09833 20.8546 2.0625 18.4896 2.0625 14.6671V9.16705C2.0625 4.98705 3.575 3.19955 7.29667 3.00705C7.66333 2.98872 8.0025 3.27289 8.02083 3.65789C8.03917 4.04289 7.74583 4.35455 7.37 4.37289C4.76667 4.51955 3.4375 5.29872 3.4375 9.16705V14.6671C3.4375 18.0587 4.10667 19.4796 8.25 19.4796H13.75C17.8933 19.4796 18.5625 18.0587 18.5625 14.6671V9.16705C18.5625 5.29872 17.2333 4.51955 14.63 4.37289C14.2542 4.35455 13.9608 4.02455 13.9792 3.64872C13.9975 3.27289 14.3275 2.97955 14.7033 2.99789C18.425 3.19955 19.9375 4.98705 19.9375 9.15789V14.6579C19.9375 18.4896 18.9017 20.8546 13.75 20.8546Z" fill="#637381"/>
</svg>
