<svg width="22" height="22" viewBox="0 0 22 22" fill="none" xmlns="http://www.w3.org/2000/svg">
<g clip-path="url(#clip0_542_403199)">
<path fill-rule="evenodd" clip-rule="evenodd" d="M14.2054 13.1614L13.1124 14.3814L13.7813 21.0197L11.3695 13.7329H8.64826C8.20072 13.8314 7.65117 14.3005 7.49316 14.7312V21.9923C11.9959 22.0029 16.4969 22.0025 21.0001 21.9919L20.9997 14.7846C20.8417 14.354 20.2097 13.8314 19.7625 13.7329H17.0413L14.6295 21.0197L15.298 14.3814L14.2054 13.1614Z" fill="#919EAB"/>
<path d="M14.2052 13.1946C16.0102 13.1946 17.4734 11.7057 17.4734 9.86902C17.4734 8.03236 16.0102 6.54346 14.2052 6.54346C12.4002 6.54346 10.937 8.03236 10.937 9.86902C10.937 11.7057 12.4002 13.1946 14.2052 13.1946Z" fill="#919EAB"/>
<path fill-rule="evenodd" clip-rule="evenodd" d="M1.8495 0H20.15C20.6176 0 21 0.389139 21 0.864851V11.6945H20.2217V0.914762H1.92199V21.0709H5.57221V21.9919H1.8495C1.38243 21.9919 1 21.6027 1 21.127V0.864851C1 0.389139 1.38243 0 1.8495 0Z" fill="#637381"/>
<path d="M17.7554 3.4187H5.06885V4.33435H17.7554V3.4187Z" fill="#637381"/>
<path d="M10.4745 7.07153H4.98853V7.98718H10.4745V7.07153Z" fill="#637381"/>
<path d="M9.52261 10.6914H4.97949V11.6071H9.52261V10.6914Z" fill="#637381"/>
</g>
<defs>
<clipPath id="clip0_542_403199">
<rect width="22" height="22" fill="white"/>
</clipPath>
</defs>
</svg>
