<svg width="22" height="22" viewBox="0 0 22 22" fill="none" xmlns="http://www.w3.org/2000/svg">
<path d="M17.875 11.4584C17.875 10.1934 18.9017 9.16675 20.1667 9.16675V8.25008C20.1667 4.58341 19.25 3.66675 15.5834 3.66675H6.41671C2.75004 3.66675 1.83337 4.58341 1.83337 8.25008V8.70841C3.09837 8.70841 4.12504 9.73508 4.12504 11.0001C4.12504 12.2651 3.09837 13.2917 1.83337 13.2917V13.7501C1.83337 17.4167 2.75004 18.3334 6.41671 18.3334H15.5834C19.25 18.3334 20.1667 17.4167 20.1667 13.7501C18.9017 13.7501 17.875 12.7234 17.875 11.4584Z" stroke="#637381" stroke-width="1.5" stroke-linecap="round" stroke-linejoin="round"/>
<path d="M9.16663 3.66675L9.16663 18.3334" stroke="#637381" stroke-width="1.5" stroke-linecap="round" stroke-linejoin="round" stroke-dasharray="5 5"/>
</svg>
