<svg width="22" height="22" viewBox="0 0 22 22" fill="none" xmlns="http://www.w3.org/2000/svg">
<path d="M18.333 10.7709H3.66633C3.4555 10.7709 3.263 10.6792 3.13467 10.5142C3.00633 10.3584 2.95133 10.1384 2.99717 9.93674L4.033 4.98674C4.37217 3.38257 5.05966 1.90674 7.78217 1.90674H14.2263C16.9488 1.90674 17.6363 3.39174 17.9755 4.98674L19.0113 9.94591C19.0572 10.1476 19.0022 10.3584 18.8738 10.5234C18.7363 10.6792 18.5438 10.7709 18.333 10.7709ZM4.50967 9.3959H17.4805L16.6188 5.2709C16.3622 4.07007 16.0597 3.28174 14.2172 3.28174H7.78217C5.93967 3.28174 5.63717 4.07007 5.3805 5.2709L4.50967 9.3959Z" fill="#637381"/>
<path d="M18.2963 20.8543H16.573C15.088 20.8543 14.8038 20.0018 14.6205 19.4427L14.4371 18.8927C14.1988 18.196 14.1713 18.1043 13.3463 18.1043H8.65296C7.82796 18.1043 7.77296 18.2602 7.56213 18.8927L7.3788 19.4427C7.1863 20.011 6.9113 20.8543 5.4263 20.8543H3.70296C2.9788 20.8543 2.28213 20.5518 1.7963 20.0202C1.31963 19.4977 1.09046 18.801 1.15463 18.1043L1.66796 12.5218C1.80546 11.0093 2.2088 9.396 5.1513 9.396H16.848C19.7905 9.396 20.1846 11.0093 20.3313 12.5218L20.8446 18.1043C20.9088 18.801 20.6796 19.4977 20.203 20.0202C19.7171 20.5518 19.0205 20.8543 18.2963 20.8543ZM8.65296 16.7293H13.3463C15.0146 16.7293 15.4088 17.4718 15.7388 18.4435L15.9313 19.0118C16.0871 19.4793 16.0871 19.4885 16.5821 19.4885H18.3055C18.6446 19.4885 18.9655 19.351 19.1946 19.1035C19.4146 18.8652 19.5155 18.5627 19.488 18.2418L18.9746 12.6593C18.8555 11.4218 18.7088 10.7802 16.8663 10.7802H5.1513C3.29963 10.7802 3.15296 11.4218 3.04296 12.6593L2.52963 18.2418C2.50213 18.5627 2.60296 18.8652 2.82296 19.1035C3.04296 19.351 3.37296 19.4885 3.71213 19.4885H5.43546C5.93046 19.4885 5.93046 19.4793 6.0863 19.021L6.26963 18.4618C6.4988 17.7285 6.83796 16.7293 8.65296 16.7293Z" fill="#637381"/>
<path d="M3.66667 8.02075H2.75C2.37417 8.02075 2.0625 7.70908 2.0625 7.33325C2.0625 6.95742 2.37417 6.64575 2.75 6.64575H3.66667C4.0425 6.64575 4.35417 6.95742 4.35417 7.33325C4.35417 7.70908 4.0425 8.02075 3.66667 8.02075Z" fill="#637381"/>
<path d="M19.25 8.02075H18.3334C17.9575 8.02075 17.6459 7.70908 17.6459 7.33325C17.6459 6.95742 17.9575 6.64575 18.3334 6.64575H19.25C19.6259 6.64575 19.9375 6.95742 19.9375 7.33325C19.9375 7.70908 19.6259 8.02075 19.25 8.02075Z" fill="#637381"/>
<path d="M11 5.27083C10.6242 5.27083 10.3125 4.95917 10.3125 4.58333V2.75C10.3125 2.37417 10.6242 2.0625 11 2.0625C11.3758 2.0625 11.6875 2.37417 11.6875 2.75V4.58333C11.6875 4.95917 11.3758 5.27083 11 5.27083Z" fill="#637381"/>
<path d="M12.375 5.27075H9.625C9.24917 5.27075 8.9375 4.95909 8.9375 4.58325C8.9375 4.20742 9.24917 3.89575 9.625 3.89575H12.375C12.7508 3.89575 13.0625 4.20742 13.0625 4.58325C13.0625 4.95909 12.7508 5.27075 12.375 5.27075Z" fill="#637381"/>
<path d="M8.25 14.4375H5.5C5.12417 14.4375 4.8125 14.1258 4.8125 13.75C4.8125 13.3742 5.12417 13.0625 5.5 13.0625H8.25C8.62583 13.0625 8.9375 13.3742 8.9375 13.75C8.9375 14.1258 8.62583 14.4375 8.25 14.4375Z" fill="#637381"/>
<path d="M16.5 14.4375H13.75C13.3742 14.4375 13.0625 14.1258 13.0625 13.75C13.0625 13.3742 13.3742 13.0625 13.75 13.0625H16.5C16.8758 13.0625 17.1875 13.3742 17.1875 13.75C17.1875 14.1258 16.8758 14.4375 16.5 14.4375Z" fill="#637381"/>
</svg>
