<svg width="360" height="128" viewBox="0 0 360 128" fill="none" xmlns="http://www.w3.org/2000/svg">
<path d="M116.978 80.6897C116.978 89.5689 117.044 98.4482 116.947 107.328C116.905 111.192 115.427 114.616 112.961 117.603C110.846 120.194 108.028 122.113 104.849 123.128C100.968 124.392 97.116 124.213 93.2637 122.856C87.5609 120.845 81.8252 118.929 76.106 116.967C71.4701 115.378 66.8162 113.846 62.2192 112.143C61.0206 111.699 60.1395 111.642 58.8839 112.094C51.0505 114.906 43.1377 117.56 35.2503 120.261C32.1907 121.315 29.1685 122.499 26.0519 123.336C19.8442 124.999 14.3003 123.509 9.54601 119.205C6.64519 116.571 4.92658 113.228 4.23433 109.368C4.0935 108.658 4.01578 107.937 4.00209 107.213C4.01258 89.4546 3.97062 71.7065 4.04854 53.9525C4.06352 50.4203 5.45999 47.2479 7.56518 44.4005C8.9137 42.5674 10.7117 41.2115 12.4019 39.7351C14.6749 37.7455 16.9854 35.7981 19.2793 33.8326C25.1319 28.8161 30.984 23.7995 36.8356 18.783C40.4122 15.7129 43.9947 12.6503 47.5338 9.53802C50.0016 7.37388 52.5998 5.50471 55.8243 4.64388C60.4032 3.41282 64.747 3.96213 68.9259 6.16238C70.649 7.06536 72.059 8.37618 73.5198 9.6238C76.5036 12.1622 79.4758 14.7131 82.4366 17.2765C85.727 20.1079 89.0164 22.9407 92.3047 25.7751C96.2095 29.1206 100.152 32.4195 104.026 35.7996C106.75 38.179 109.645 40.3747 112.171 42.9663C114.819 45.6842 116.367 48.9936 116.852 52.8027C116.952 53.7207 116.994 54.644 116.978 55.5673C116.987 63.9409 116.987 72.315 116.978 80.6897ZM65.4842 108.158C67.5819 108.888 69.5777 109.589 71.5795 110.274C79.1387 112.861 86.7129 115.415 94.2541 118.046C96.4552 118.812 98.6713 119.298 100.986 119.032C107.279 118.306 112.134 112.824 112.164 106.48C112.176 103.922 112.164 101.363 112.164 98.8049C112.164 84.4114 112.168 70.0175 112.176 55.623C112.176 51.674 110.919 48.2743 107.981 45.6481C104.483 42.5238 100.871 39.5319 97.3138 36.4753C93.0424 32.8012 88.7676 29.1231 84.4893 25.441C79.3694 21.0329 74.2061 16.658 69.1072 12.2168C64.5762 8.27084 58.2591 7.71099 53.4314 11.049C51.013 12.721 48.9123 14.8114 46.6753 16.7242C43.0508 19.8199 39.4562 22.9518 35.8377 26.055C31.5574 29.7271 27.2696 33.3892 22.9743 37.0412C19.9042 39.6719 16.879 42.3583 13.7729 44.9453C10.4915 47.6798 8.8283 51.1337 8.8283 55.4093C8.8283 72.3652 8.83279 89.3171 8.84178 106.265C8.84178 110.422 10.49 113.842 13.7654 116.405C16.6123 118.64 19.8682 119.453 23.4553 118.926C25.3192 118.654 27.0363 117.907 28.7969 117.313C35.3732 115.087 41.9375 112.825 48.5048 110.574C50.8167 109.781 53.1257 108.98 55.5471 108.145C52.2252 106.202 49.4398 103.761 46.6963 101.293C42.6297 97.6355 38.755 93.7678 35.3567 89.4651C31.873 85.0631 28.9392 80.3495 27.4319 74.867C26.0834 69.9593 26.0624 65.0651 27.8814 60.2688C29.5161 55.9721 32.2027 52.5122 36.2827 50.2713C38.4433 49.0854 40.7778 48.4127 43.2336 48.5376C46.7023 48.7122 49.8128 50.0336 52.7257 51.8696C55.4051 53.5652 57.8574 55.5984 60.0227 57.9196C60.3838 58.3033 60.631 58.3259 60.9681 57.9196C61.2798 57.5618 61.6104 57.2212 61.9585 56.8992C64.6661 54.2821 67.5968 51.9689 71.0221 50.3601C74.2016 48.8687 77.4995 47.9883 81.0161 48.8823C87.1219 50.4369 90.8963 54.5891 93.1079 60.2748C95.1172 65.4414 94.9059 70.7133 93.2577 75.946C91.7429 80.7363 89.1657 84.9412 86.112 88.8797C83.3356 92.4615 80.186 95.6956 76.9466 98.847C74.5267 101.198 71.9616 103.38 69.3334 105.491C68.1318 106.453 66.8417 107.284 65.4842 108.158ZM63.0373 103.944C63.839 103.427 64.4937 103.064 65.0826 102.614C70.7832 98.2704 76.0069 93.3293 80.6655 87.8744C83.2831 84.7997 85.5756 81.5069 87.3152 77.8423C88.7581 74.8053 89.6467 71.6132 89.6736 68.2466C89.6976 65.315 89.0998 62.4856 87.6344 59.9001C86.3668 57.6622 84.6961 55.8096 82.4261 54.553C79.2601 52.7997 76.1435 53.2722 73.0569 54.7757C68.9199 56.7924 65.598 59.8233 62.6493 63.2968C61.2498 64.9523 59.7425 64.9523 58.3475 63.2968C55.4032 59.8128 52.0649 56.7984 47.9354 54.7712C45.9096 53.7779 43.7925 53.1413 41.5135 53.5386C38.1721 54.121 35.7807 56.1377 33.9917 58.8948C30.8781 63.6971 30.6953 68.8862 32.2926 74.2153C33.9527 79.7506 37.2656 84.3166 40.9636 88.6283C43.734 91.858 46.7712 94.8258 49.9297 97.6671C52.826 100.274 55.8183 102.763 59.206 104.724C59.4832 104.885 59.6945 105.014 59.9747 104.686C61.0475 103.424 62.0304 102.108 62.6193 100.534C63.1737 99.0532 62.9594 97.6897 61.8506 96.5761C60.4092 95.1313 59.8354 93.387 59.9118 91.4065C59.9387 90.7082 59.6945 90.5592 59.0637 90.5923C58.1647 90.6375 57.2417 90.6059 56.4131 90.2687C55.0346 89.7089 54.4128 88.4763 54.3813 87.0963C54.2989 83.4618 54.3529 79.8258 54.3529 76.1898C54.3555 76.1148 54.3655 76.0401 54.3828 75.9671C55.2624 71.1512 59.4862 68.7162 63.9543 69.8298C67.5504 70.7328 69.6226 74.2635 69.7515 77.4043C69.8743 80.4143 69.7185 83.4242 69.8024 86.4341C69.8624 88.5411 67.8905 90.5336 65.7464 90.4734C64.5777 90.4403 63.4014 90.3952 62.2327 90.5652C61.9435 90.6074 61.6708 90.6149 61.7053 91.0167C61.8342 92.4826 61.8881 93.9303 63.0388 95.1072C64.8878 97.002 65.2594 99.2368 64.1806 101.676C63.8704 102.387 63.4869 103.059 63.0373 103.95V103.944ZM56.2618 78.6143C56.2618 79.7084 56.2723 80.6099 56.2618 81.5114C56.2543 81.8801 56.3502 82.0501 56.7607 82.0501C60.3253 82.0501 63.8914 81.9975 67.4545 82.1766C67.8186 82.1961 68.0134 82.0953 67.9939 81.6784C67.9205 80.1569 68.0538 78.6369 67.8606 77.1094C67.4245 73.666 65.0317 71.4793 61.5675 71.5139C59.3649 71.535 57.8216 72.614 56.7907 74.5404C56.055 75.9099 56.3217 77.3712 56.2618 78.6143ZM64.9522 83.9991V83.984C64.1057 83.984 63.2591 83.9946 62.4125 83.984C62.0574 83.984 61.8551 84.0563 61.8596 84.4731C61.8761 85.7238 61.8701 86.9729 61.8596 88.2235C61.8596 88.5245 61.9525 88.675 62.2852 88.675C63.4044 88.6524 64.5327 88.7096 65.643 88.6238C66.969 88.5215 67.6403 87.9647 67.9085 86.8314C68.1063 85.9992 67.9654 85.1398 67.9834 84.2925C67.9834 83.9464 67.7032 84.0081 67.4905 84.0066C66.6334 83.9961 65.7928 83.9991 64.9478 83.9991H64.9522ZM60.0227 86.3935C60.0227 85.7689 60.0092 85.1428 60.0227 84.5183C60.0316 84.1511 59.9223 83.9614 59.5177 83.9705C58.5722 83.99 57.6268 83.9915 56.6813 83.9855C56.3682 83.9855 56.2108 84.1119 56.2168 84.422C56.2348 85.3942 56.1134 86.3784 56.3022 87.3386C56.4356 88.0128 56.7712 88.5727 57.5264 88.6569C60.0152 88.9354 60.0167 88.9263 60.0182 86.4687L60.0227 86.3935Z" fill="#3DB2BB"/>
<path d="M159.607 66.7855H144.099V82H136.969V46.573H144.099V60.783H159.607V46.573H166.761V82H159.607V66.7855ZM183.978 82.49C181.495 82.49 179.331 81.9592 177.485 80.8975C175.656 79.8358 174.235 78.3332 173.222 76.3895C172.226 74.4458 171.728 72.1428 171.728 69.4805C171.728 66.8182 172.226 64.4907 173.222 62.498C174.235 60.5053 175.656 58.9537 177.485 57.843C179.331 56.7323 181.503 56.177 184.002 56.177C186.501 56.177 188.665 56.7242 190.495 57.8185C192.324 58.8965 193.737 60.4318 194.733 62.4245C195.729 64.4172 196.228 66.7692 196.228 69.4805C196.228 72.0285 195.738 74.2825 194.758 76.2425C193.794 78.1862 192.397 79.7133 190.568 80.824C188.755 81.9347 186.558 82.49 183.978 82.49ZM184.002 77.1735C185.26 77.1735 186.272 76.806 187.04 76.071C187.808 75.336 188.363 74.3723 188.706 73.18C189.065 71.9713 189.245 70.6565 189.245 69.2355C189.245 67.8962 189.082 66.6303 188.755 65.438C188.445 64.2457 187.906 63.282 187.138 62.547C186.37 61.812 185.325 61.4445 184.002 61.4445C182.744 61.4445 181.724 61.7957 180.94 62.498C180.172 63.184 179.608 64.1232 179.249 65.3155C178.89 66.4915 178.71 67.7982 178.71 69.2355C178.71 70.5585 178.873 71.8325 179.2 73.0575C179.527 74.2662 180.074 75.2543 180.842 76.022C181.609 76.7897 182.663 77.1735 184.002 77.1735ZM208.2 56.667V82H201.365V56.667H208.2ZM208.274 46.5975V53.041H201.316V46.5975H208.274ZM230.118 61.6405H224.483L224.532 75.14C224.532 75.7607 224.605 76.2262 224.752 76.5365C224.915 76.8305 225.16 77.0265 225.487 77.1245C225.83 77.2062 226.263 77.247 226.786 77.247H230.191V81.657C229.864 81.804 229.35 81.9428 228.648 82.0735C227.962 82.2042 226.998 82.2695 225.757 82.2695C223.535 82.2695 221.812 81.9837 220.587 81.412C219.378 80.8403 218.537 80.04 218.064 79.011C217.59 77.982 217.353 76.7897 217.353 75.434V61.6405H213.237V56.667H217.598L219.387 49.023H224.483V56.6425H230.118V61.6405ZM240.469 70.975C240.453 72.2653 240.657 73.3923 241.081 74.356C241.506 75.3033 242.119 76.0383 242.919 76.561C243.736 77.0673 244.716 77.3205 245.859 77.3205C247.084 77.3205 248.154 77.0592 249.068 76.5365C249.999 76.0138 250.645 75.1563 251.004 73.964H257.447C257.17 75.7607 256.451 77.296 255.291 78.57C254.148 79.844 252.76 80.8158 251.126 81.4855C249.493 82.1552 247.794 82.49 246.03 82.49C243.531 82.49 241.326 81.9673 239.415 80.922C237.521 79.8603 236.043 78.3658 234.981 76.4385C233.919 74.5112 233.388 72.2408 233.388 69.6275C233.388 67.0958 233.87 64.8173 234.834 62.792C235.798 60.7503 237.194 59.1415 239.023 57.9655C240.869 56.7732 243.082 56.177 245.663 56.177C248.244 56.177 250.408 56.7242 252.155 57.8185C253.919 58.8965 255.242 60.4073 256.124 62.351C257.023 64.2783 257.472 66.5078 257.472 69.0395V70.975H240.469ZM240.444 66.712H250.783C250.783 65.6993 250.596 64.7683 250.22 63.919C249.844 63.0697 249.273 62.4 248.505 61.91C247.754 61.42 246.806 61.175 245.663 61.175C244.552 61.175 243.605 61.4445 242.821 61.9835C242.053 62.5062 241.465 63.1922 241.057 64.0415C240.649 64.8908 240.444 65.781 240.444 66.712ZM286.914 82H279.784L272.949 71.073L269.592 74.65V82H262.438V45.593H269.592V67.1775L278.902 56.667H286.595L277.383 66.761L286.914 82ZM311.86 56.177C313.984 56.177 315.813 56.6098 317.348 57.4755C318.9 58.3412 320.117 59.509 320.999 60.979C321.897 62.449 322.412 64.0905 322.542 65.9035H316.589C316.475 65.2338 316.238 64.5723 315.878 63.919C315.519 63.2493 315.013 62.7022 314.359 62.2775C313.706 61.8365 312.889 61.616 311.909 61.616C310.243 61.616 308.888 62.2612 307.842 63.5515C306.813 64.8255 306.299 66.7692 306.299 69.3825C306.299 71.8488 306.805 73.8088 307.818 75.2625C308.831 76.6998 310.243 77.4185 312.056 77.4185C313.02 77.4185 313.82 77.1817 314.457 76.708C315.111 76.2343 315.617 75.6708 315.976 75.0175C316.336 74.3478 316.564 73.7272 316.662 73.1555H322.469C322.355 74.9032 321.848 76.4875 320.95 77.9085C320.052 79.3132 318.827 80.432 317.275 81.265C315.74 82.0817 313.935 82.49 311.86 82.49C309.508 82.49 307.41 81.9673 305.564 80.922C303.718 79.8767 302.265 78.3822 301.203 76.4385C300.158 74.4785 299.635 72.1428 299.635 69.4315C299.635 66.8182 300.141 64.5152 301.154 62.5225C302.167 60.5298 303.588 58.9782 305.417 57.8675C307.263 56.7405 309.41 56.177 311.86 56.177ZM338.347 82.49C335.864 82.49 333.7 81.9592 331.854 80.8975C330.025 79.8358 328.604 78.3332 327.591 76.3895C326.595 74.4458 326.097 72.1428 326.097 69.4805C326.097 66.8182 326.595 64.4907 327.591 62.498C328.604 60.5053 330.025 58.9537 331.854 57.843C333.7 56.7323 335.872 56.177 338.371 56.177C340.87 56.177 343.034 56.7242 344.864 57.8185C346.693 58.8965 348.106 60.4318 349.102 62.4245C350.099 64.4172 350.597 66.7692 350.597 69.4805C350.597 72.0285 350.107 74.2825 349.127 76.2425C348.163 78.1862 346.767 79.7133 344.937 80.824C343.124 81.9347 340.927 82.49 338.347 82.49ZM338.371 77.1735C339.629 77.1735 340.642 76.806 341.409 76.071C342.177 75.336 342.732 74.3723 343.075 73.18C343.435 71.9713 343.614 70.6565 343.614 69.2355C343.614 67.8962 343.451 66.6303 343.124 65.438C342.814 64.2457 342.275 63.282 341.507 62.547C340.74 61.812 339.694 61.4445 338.371 61.4445C337.114 61.4445 336.093 61.7957 335.309 62.498C334.541 63.184 333.978 64.1232 333.618 65.3155C333.259 66.4915 333.079 67.7982 333.079 69.2355C333.079 70.5585 333.243 71.8325 333.569 73.0575C333.896 74.2662 334.443 75.2543 335.211 76.022C335.978 76.7897 337.032 77.1735 338.371 77.1735Z" fill="#3DB2BB"/>
</svg>
